PathFileType	4	(X/Y/Z)	 s11c0201.trc
DataRate	CameraRate	NumFrames	NumMarkers	Units	OrigDataRate	OrigDataStartFrame	OrigNumFrames
200	200	4	48	mm	200	1	2000
Frame#	Time	racr			lacr			c7			jug			rlel			rdr			llel			ldr			s2			lic			ric			lasi			rasi			rpsi			lpsi			rgt			lgt			rth1			rth2			rth3			rth4			rlfc			rmfc			rsh1			rsh2			rsh3			rsh4			rlmal			rcal			rtoe			rmt5			lth1			lth2			lth4			lth3			llfc			lmfc			llmal			lcal			lmt5			lsh1			lsh2			lsh3			lsh4			ltoe			SBIKE			LBIKE			RBIKE			
		X1	Y1	Z1	X2	Y2	Z2	X3	Y3	Z3	X4	Y4	Z4	X5	Y5	Z5	X6	Y6	Z6	X7	Y7	Z7	X8	Y8	Z8	X9	Y9	Z9	X10	Y10	Z10	X11	Y11	Z11	X12	Y12	Z12	X13	Y13	Z13	X14	Y14	Z14	X15	Y15	Z15	X16	Y16	Z16	X17	Y17	Z17	X18	Y18	Z18	X19	Y19	Z19	X20	Y20	Z20	X21	Y21	Z21	X22	Y22	Z22	X23	Y23	Z23	X24	Y24	Z24	X25	Y25	Z25	X26	Y26	Z26	X27	Y27	Z27	X28	Y28	Z28	X29	Y29	Z29	X30	Y30	Z30	X31	Y31	Z31	X32	Y32	Z32	X33	Y33	Z33	X34	Y34	Z34	X35	Y35	Z35	X36	Y36	Z36	X37	Y37	Z37	X38	Y38	Z38	X39	Y39	Z39	X40	Y40	Z40	X41	Y41	Z41	X42	Y42	Z42	X43	Y43	Z43	X44	Y44	Z44	X45	Y45	Z45	X46	Y46	Z46	X47	Y47	Z47	X48	Y48	Z48	
1	0.0050	465.547927	1459.353807	-80.252113	469.912288	1481.626462	-397.802234	375.328436	1537.617909	-240.553600	437.366759	1370.092700	-246.768498	579.298984	1204.540404	-15.663741	767.795473	972.701370	-28.599852	557.975362	1187.063726	-478.247515	787.025674	963.284212	-449.500880	-129.602596	1185.135607	-261.995957	63.147183	1206.153079	-395.341268	99.465510	1204.891187	-51.028880	132.801936	1148.075477	-408.579467	132.334916	1136.023888	-80.149537	-74.565296	1275.942665	-195.988161	-76.875471	1272.279620	-291.502661	25.039017	1046.671807	-39.810477	20.762215	1108.182917	-471.213464	99.082178	889.659207	-89.950095	145.529429	852.099020	-51.350704	159.603667	768.197256	-72.351946	178.667044	868.459255	-58.062620	206.395710	676.754469	-99.567998	204.136514	656.874520	-221.444730	186.989553	522.046967	-77.443615	206.772066	436.762522	-91.236450	183.043337	352.902759	-87.835434	229.766812	437.954169	-124.004854	172.402949	211.252335	-98.559754	118.709998	171.144812	-145.847028	400.697871	224.902142	-133.242796	340.003871	178.555190	-65.486874	150.451100	1042.701586	-492.394863	235.150695	1030.678390	-494.243253	251.282826	1062.660997	-482.593627	305.308962	974.532259	-501.692319	428.107834	901.681372	-489.224154	448.289458	897.664983	-359.509374	115.619349	619.357187	-416.134571	42.697940	603.538685	-374.991669	209.814323	481.421750	-443.587722	340.598573	811.831154	-494.285569	299.706144	741.338630	-467.997657	224.700206	695.967936	-453.305091	324.336287	727.454222	-445.551742	306.756168	465.704515	-375.635545	-205.135813	957.749327	-263.225507	1.130597	82.550531	-460.788944	-15.373590	81.034539	-62.493527	
2	0.0100	465.535345	1459.319033	-80.246177	469.899721	1481.612330	-397.769470	375.321420	1537.624375	-240.504381	437.327002	1370.148445	-246.753444	579.282538	1204.515913	-15.665775	767.796356	972.693548	-28.553540	557.988262	1187.091634	-478.229489	787.035181	963.290833	-449.524425	-129.601290	1185.135495	-262.034386	63.382339	1206.132872	-395.502150	99.440602	1204.928844	-51.005432	132.800702	1148.047088	-408.578343	132.336747	1136.017922	-80.161887	-74.566166	1275.948571	-196.028976	-76.868499	1272.281448	-291.531439	25.018243	1046.685346	-39.829872	20.779440	1108.166438	-471.218107	99.063379	889.662287	-89.941012	145.494656	852.124999	-51.341450	159.591446	768.237100	-72.350547	178.656333	868.471212	-58.067824	206.395701	676.749092	-99.562825	204.188085	656.888206	-221.449239	186.991270	522.121957	-77.424901	206.782164	436.774556	-91.212627	183.072989	352.892231	-87.813914	229.768470	437.986254	-123.994546	172.398417	211.262480	-98.560848	118.698681	171.144730	-145.807211	400.704247	224.908654	-133.245966	340.012789	178.580524	-65.485021	150.467574	1042.686900	-492.392869	235.175585	1030.667984	-494.206954	251.309699	1062.637532	-482.555243	305.340404	974.533729	-501.638622	428.150369	901.686193	-489.129482	448.306343	897.647704	-359.432068	115.632671	619.360177	-416.131040	42.702308	603.527684	-374.971091	209.808004	481.415302	-443.600826	340.647993	811.866729	-494.223019	299.726461	741.358481	-467.979021	224.724395	695.969958	-453.258259	324.362614	727.434396	-445.478040	306.753733	465.681374	-375.635696	-205.137163	957.741619	-263.207394	1.112378	82.641499	-460.734072	-15.307585	81.045263	-62.558025	
3	0.0150	465.502962	1459.318915	-80.247394	469.900132	1481.618517	-397.771126	375.293234	1537.633233	-240.508425	437.330079	1370.154144	-246.730219	579.277058	1204.520579	-15.646449	767.811963	972.696810	-28.547265	558.012034	1187.104447	-478.239100	787.047220	963.309261	-449.536262	-129.616183	1185.126971	-262.065583	63.326014	1206.087756	-395.501922	99.423904	1204.926946	-51.040211	132.840360	1148.064454	-408.618635	132.323285	1136.020328	-80.141193	-74.573279	1275.962859	-196.050964	-76.866150	1272.279360	-291.564992	24.980982	1046.697210	-39.845668	20.785625	1108.161789	-471.224189	99.079631	889.682910	-89.966364	145.495674	852.140349	-51.337942	159.589971	768.254333	-72.336624	178.647633	868.486969	-58.034166	206.393841	676.776168	-99.538766	204.234693	656.939947	-221.326405	187.012964	522.140044	-77.411684	206.783170	436.789074	-91.201730	183.071780	352.918284	-87.817281	229.771319	437.998423	-123.977249	172.413271	211.275763	-98.554394	118.693959	171.189985	-145.810705	400.706777	224.911818	-133.258081	340.032399	178.576497	-65.482030	150.498155	1042.679578	-492.345524	235.208055	1030.657057	-494.158501	251.336954	1062.625666	-482.510129	305.378718	974.513816	-501.563864	428.191594	901.690359	-489.031994	448.320028	897.639827	-359.328030	115.640391	619.351169	-416.102265	42.708616	603.544934	-374.981615	209.804939	481.409051	-443.602802	340.681221	811.868231	-494.158080	299.739626	741.365512	-467.958711	224.747381	695.987678	-453.237458	324.380867	727.436192	-445.431002	306.745661	465.671914	-375.634209	-205.141167	957.748698	-263.215037	1.113086	82.649681	-460.733491	-15.294934	81.056076	-62.573135	
4	0.0200	465.485449	1459.294182	-80.230701	469.906951	1481.612323	-397.759243	375.274504	1537.648813	-240.483879	437.304715	1370.193419	-246.723287	579.272955	1204.516569	-15.625975	767.829595	972.699668	-28.515770	558.036163	1187.110720	-478.228380	786.761965	962.995494	-448.820994	-129.436832	1184.886848	-262.492030	63.408705	1206.134474	-395.536765	99.389361	1204.945399	-51.021541	132.817811	1148.042424	-408.554500	132.301405	1136.016362	-80.152303	-73.791777	1275.590914	-195.697734	-76.849475	1272.280745	-291.612511	24.947521	1046.716572	-39.847402	20.813830	1108.146159	-471.228051	98.760906	889.669485	-89.793606	145.482645	852.150636	-51.340327	159.598416	768.274954	-72.335309	178.440370	868.528523	-58.103819	206.405439	676.785333	-99.539359	204.300586	656.975786	-221.314474	187.726624	522.078122	-77.342439	207.216232	437.043035	-91.002593	183.086957	352.917128	-87.798716	229.384682	438.069450	-124.034657	172.255390	211.444951	-98.480792	118.729827	171.211446	-145.822673	400.732904	224.918944	-133.242805	340.038603	178.587309	-65.479464	150.531867	1042.661292	-492.335041	235.200129	1031.030586	-494.964221	251.368869	1062.622186	-482.458426	305.312695	974.510992	-501.591996	428.227211	901.666767	-488.923070	448.307594	897.653078	-359.209928	115.649569	619.374497	-416.098389	42.712854	603.541539	-374.970577	209.809533	481.409595	-443.602680	340.710044	811.880671	-494.086015	299.676661	740.860155	-467.283626	224.768460	695.988331	-453.206315	324.304890	727.659838	-445.391613	306.741781	465.667398	-375.632149	-205.128261	957.736392	-263.205815	1.092814	82.640660	-460.721449	-15.373094	81.052072	-62.501559	
